<?xml version="1.0" encoding="iso-8859-1"?>
<!-- Uploaded to: SVG Repo, www.svgrepo.com, Generator: SVG Repo Mixer Tools -->
<svg height="800px" width="800px" version="1.1" id="Layer_1" xmlns="http://www.w3.org/2000/svg" xmlns:xlink="http://www.w3.org/1999/xlink" 
	 viewBox="0 0 512 512" xml:space="preserve">
<path style="fill:#528FB3;" d="M225.236,401.579c-9.102,0-16.481-7.379-16.481-16.481v-145.03c0-9.102,7.379-16.481,16.481-16.481
	s16.481,7.379,16.481,16.481v145.03C241.717,394.2,234.338,401.579,225.236,401.579z"/>
<path style="fill:#2C6991;" d="M285.665,401.579c-9.102,0-16.481-7.379-16.481-16.481v-145.03c0-9.102,7.379-16.481,16.481-16.481
	c9.102,0,16.481,7.379,16.481,16.481v145.03C302.146,394.2,294.767,401.579,285.665,401.579z"/>
<path style="fill:#8F5543;" d="M425.202,166.455H86.798c-9.102,0-16.481,6.832-16.481,15.934v21.149
	c0,24.385,19.839,44.222,44.224,44.222h282.916c24.385,0,44.224-19.837,44.224-44.222v-21.149
	C441.682,173.287,434.303,166.455,425.202,166.455z"/>
<path style="fill:#C97E67;" d="M256,166.455H86.798c-9.102,0-16.481,6.832-16.481,15.934v21.149
	c0,24.385,19.839,44.222,44.224,44.222H256V166.455z"/>
<path style="fill:#2C6991;" d="M120.858,410.369c-9.102,0-16.481-7.379-16.481-16.481v-80.206H28.567
	c-9.102,0-16.481-7.379-16.481-16.481c0-9.102,7.379-16.481,16.481-16.481h92.292c9.102,0,16.481,7.379,16.481,16.481v96.687
	C137.339,402.99,129.96,410.369,120.858,410.369z"/>
<path style="fill:#528FB3;" d="M120.858,410.369c-9.102,0-16.481-7.379-16.481-16.481v-80.206H28.567
	c-9.102,0-16.481-7.379-16.481-16.481c0-9.102,7.379-16.481,16.481-16.481h92.292V410.369z"/>
<path style="fill:#C34A48;" d="M137.339,313.682v-16.481c0-9.102-7.379-16.481-16.481-16.481H28.567
	c-9.102,0-16.481,7.379-16.481,16.481c0,9.102,7.379,16.481,16.481,16.481H137.339z"/>
<path style="fill:#FB5858;" d="M74.712,313.682v-32.961H28.567c-9.102,0-16.481,7.379-16.481,16.481
	c0,9.102,7.379,16.481,16.481,16.481H74.712z"/>
<path style="fill:#8F5543;" d="M296.652,415.863h-81.305c-9.102,0-16.481-7.379-16.481-16.481c0-9.102,7.379-16.481,16.481-16.481
	h81.305c9.102,0,16.481,7.379,16.481,16.481C313.133,408.484,305.754,415.863,296.652,415.863z"/>
<path style="fill:#C97E67;" d="M256,415.863h-40.652c-9.102,0-16.481-7.379-16.481-16.481c0-9.102,7.379-16.481,16.481-16.481H256
	V415.863z"/>
<path style="fill:#528FB3;" d="M391.142,410.369c9.102,0,16.481-7.379,16.481-16.481v-80.206h75.811
	c9.102,0,16.481-7.379,16.481-16.481c0-9.102-7.379-16.481-16.481-16.481h-92.292c-9.102,0-16.481,7.379-16.481,16.481v96.687
	C374.661,402.99,382.04,410.369,391.142,410.369z"/>
<path style="fill:#2C6991;" d="M391.142,410.369c9.102,0,16.481-7.379,16.481-16.481v-80.206h75.811
	c9.102,0,16.481-7.379,16.481-16.481c0-9.102-7.379-16.481-16.481-16.481h-92.292V410.369z"/>
<path style="fill:#C34A48;" d="M374.661,313.682v-16.481c0-9.102,7.379-16.481,16.481-16.481h92.292
	c9.102,0,16.481,7.379,16.481,16.481c0,9.102-7.379,16.481-16.481,16.481H374.661z"/>
<path style="fill:#FB5858;" d="M374.661,313.682v-16.481c0-9.102,7.379-16.481,16.481-16.481h50.541v32.961H374.661z"/>
<path style="fill:#2C6991;" d="M16.481,410.369C7.379,410.369,0,402.99,0,393.888v-281.27c0-9.102,7.379-16.481,16.481-16.481
	s16.481,7.379,16.481,16.481v281.27C32.961,402.99,25.582,410.369,16.481,410.369z"/>
<path style="fill:#528FB3;" d="M16.481,410.369C7.379,410.369,0,402.99,0,393.888v-281.27c0-9.102,7.379-16.481,16.481-16.481
	V410.369z"/>
<path style="fill:#2C6991;" d="M495.519,410.369c-9.102,0-16.481-7.379-16.481-16.481v-281.27c0-9.102,7.379-16.481,16.481-16.481
	c9.102,0,16.481,7.379,16.481,16.481v281.27C512,402.99,504.621,410.369,495.519,410.369z"/>
<path style="fill:#528FB3;" d="M495.519,410.369c-9.102,0-16.481-7.379-16.481-16.481v-281.27c0-9.102,7.379-16.481,16.481-16.481
	V410.369z"/>
</svg>